# xmcd
#
# Track frame offsets: 
#        150
#        21987
#        43312
#        61662
#        80825
#        100200
#        115000
#        131625
#        151975
#        170487
#        188212
#
# Disc length: 2884 seconds
#
# Revision: 2
# Processed by: cddbd v1.5.2PL0 Copyright (c) Steve Scherf et al.
# Submitted via: ExactAudioCopy v0.99pb5
#
DISCID=910b420b
DTITLE=Willy Michl - Review
DYEAR=1986
DGENRE=
TTITLE0=Una bella signorina
TTITLE1=Isarflimmern
TTITLE2=Sonnenuntergang
TTITLE3=Das Land Nepal
TTITLE4=Schwabing
TTITLE5=Bobfahrer-Lied
TTITLE6=Das F.C. Bayern-Lied
TTITLE7=Telephonblues
TTITLE8=Opas Rap
TTITLE9=Made In Germany
TTITLE10=High Fly
EXTD=
EXTT0=
EXTT1=
EXTT2=
EXTT3=
EXTT4=
EXTT5=
EXTT6=
EXTT7=
EXTT8=
EXTT9=
EXTT10=
PLAYORDER=
